<svg width="105" height="35" viewBox="0 0 105 35" fill="none" xmlns="http://www.w3.org/2000/svg">
<path d="M28.0484 9.32422V30.3777H24.9845V18.8524C24.9845 18.8524 16.9031 18.8524 12.8772 18.8524C12.8772 19.8094 12.8772 20.7109 12.8772 21.6956C15.9262 21.6956 18.8865 21.6956 21.9207 21.6956C21.9207 22.2504 21.9207 22.708 21.9207 23.1657C21.9207 26.8411 21.9207 30.5303 21.9207 34.2057C21.9207 34.4414 21.9355 34.6217 21.9651 34.7604C25.399 34.2334 28.522 32.8465 31.0678 30.8216C31.0678 27.9368 31.0678 16.5917 31.0678 16.0092C31.053 13.804 30.5202 11.3491 28.0484 9.32422Z" fill="#FF2E4C"/>
<path d="M21.9058 10.2117H24.9696V3.90117C26.8197 4.27564 33.8207 8.56124 34.1019 15.2878V27.7702C36.3665 24.8576 37.7134 21.2793 37.7134 17.396C37.7134 8.63058 30.8901 1.36309 21.9502 0.00390625C21.9206 0.156468 21.9058 0.336768 21.9058 0.572546L21.9058 10.2117Z" fill="#FF2E4C"/>
<path d="M9.79849 25.4401V4.38659H12.8623V15.9119C12.8623 15.9119 20.9438 15.9119 24.9697 15.9119C24.9697 14.955 24.9697 14.0535 24.9697 13.0687C21.9206 13.0687 18.9604 13.0687 15.9262 13.0687C15.9262 12.514 15.9262 12.0563 15.9262 11.5986C15.9262 7.92325 15.9262 4.23403 15.9262 0.558676C15.9262 0.322899 15.9114 0.142599 15.8818 0.00390625C12.4479 0.530938 9.32485 1.91786 6.77905 3.94277C6.77905 6.82758 6.77905 18.1726 6.77905 18.7551C6.79385 20.9742 7.3267 23.4291 9.79849 25.4401Z" fill="#FF2E4C"/>
<path d="M15.9409 24.5663H12.8771V30.8768C11.027 30.5023 4.026 26.2167 3.74478 19.4901V7.00781C1.48021 9.92036 0.133301 13.4986 0.133301 17.382C0.133301 26.1474 6.95663 33.4149 15.8965 34.7741C15.9261 34.6215 15.9409 34.4412 15.9409 34.2054V24.5663Z" fill="#FF2E4C"/>
<path d="M47.7273 24.9719V9.25977H50.1504V15.6112H52.3238V9.25977H54.7469V24.9719H52.3238V17.6656H50.1504V24.9719H47.7273Z" fill="white"/>
<path fill-rule="evenodd" clip-rule="evenodd" d="M62.2071 9.25977L59.9309 24.9719H62.2952L62.633 22.1652H65.2029L65.5848 24.9719H67.8463L65.4085 9.25977H62.2071ZM63.8666 12.3414L64.9386 20.2409H62.8533L63.8372 12.3414H63.8666Z" fill="white"/>
<path d="M73.0154 24.9719V9.25977H74.9245L78.3021 18.6929L78.1259 14.4103V9.27423H80.314V24.9864H78.5958L75.1301 15.2206L75.2622 19.3439V24.9719H73.0154Z" fill="white"/>
<path d="M85.8503 24.9719V9.25977H88.2734V16.4937L90.6965 9.25977H93.2077L90.5643 17.0146L93.4133 24.9719H90.8433L88.3028 17.6222V24.9575H85.8503V24.9719Z" fill="white"/>
<path fill-rule="evenodd" clip-rule="evenodd" d="M101.358 25.145C102.592 25.145 103.473 24.7688 104.031 24.0165C104.589 23.2497 104.868 22.1067 104.868 20.5731V13.3826C104.868 11.9647 104.603 10.8941 104.06 10.1562C103.517 9.41834 102.636 9.05664 101.402 9.05664C99.0084 9.05664 97.8188 10.5034 97.8188 13.3826V20.5731C97.8188 22.0922 98.0979 23.2497 98.6706 24.002C99.2433 24.7688 100.139 25.145 101.358 25.145ZM101.358 23.0761C100.917 23.0761 100.624 22.888 100.477 22.5263C100.345 22.1646 100.271 21.528 100.257 20.602V13.2668C100.257 12.5289 100.345 11.9936 100.506 11.6464C100.668 11.3136 100.962 11.14 101.373 11.14C101.784 11.14 102.063 11.2992 102.21 11.6464C102.357 11.9936 102.43 12.5434 102.43 13.2813V20.602C102.43 21.4991 102.357 22.1356 102.224 22.5118C102.092 22.888 101.799 23.0761 101.358 23.0761Z" fill="white"/>
</svg>
