<svg width="119" height="19" viewBox="0 0 119 19" fill="none" xmlns="http://www.w3.org/2000/svg">
<path d="M0.788438 15V1.04H9.98844V3.38H3.42844V6.76H9.22844V9.1H3.42844V12.66H9.98844V15H0.788438ZM11.5206 15L15.0806 9.7L11.6006 4.56H14.5206L16.6806 8.02H16.7606L18.9006 4.56H21.6206L18.0806 9.74L21.6406 15H18.7206L16.5206 11.4H16.4406L14.2406 15H11.5206ZM31.1795 15C30.6195 15 30.1729 14.84 29.8395 14.52C29.5195 14.1867 29.3195 13.7467 29.2395 13.2H29.1195C28.9462 13.88 28.5929 14.3933 28.0595 14.74C27.5262 15.0733 26.8662 15.24 26.0795 15.24C25.0129 15.24 24.1929 14.96 23.6195 14.4C23.0462 13.84 22.7595 13.0933 22.7595 12.16C22.7595 11.08 23.1462 10.28 23.9195 9.76C24.6929 9.22667 25.7929 8.96 27.2195 8.96H28.9995V8.2C28.9995 7.61333 28.8462 7.16 28.5395 6.84C28.2329 6.52 27.7395 6.36 27.0595 6.36C26.4595 6.36 25.9729 6.49333 25.5995 6.76C25.2395 7.01333 24.9329 7.32 24.6795 7.68L23.1595 6.32C23.5462 5.72 24.0595 5.24 24.6995 4.88C25.3395 4.50667 26.1862 4.32 27.2395 4.32C28.6529 4.32 29.7262 4.64 30.4595 5.28C31.1929 5.92 31.5595 6.84 31.5595 8.04V12.96H32.5995V15H31.1795ZM26.9395 13.38C27.5129 13.38 27.9995 13.2533 28.3995 13C28.7995 12.7467 28.9995 12.3733 28.9995 11.88V10.5H27.3595C26.0262 10.5 25.3595 10.9267 25.3595 11.78V12.12C25.3595 12.5467 25.4929 12.8667 25.7595 13.08C26.0395 13.28 26.4329 13.38 26.9395 13.38ZM34.6714 15V4.56H37.2314V6.3H37.3314C37.5314 5.75333 37.8514 5.28667 38.2914 4.9C38.7314 4.51333 39.3447 4.32 40.1314 4.32C40.8514 4.32 41.4714 4.49333 41.9914 4.84C42.5114 5.18667 42.8981 5.71333 43.1514 6.42H43.1914C43.3781 5.83333 43.7447 5.34 44.2914 4.94C44.8514 4.52667 45.5514 4.32 46.3914 4.32C47.4181 4.32 48.2047 4.67333 48.7514 5.38C49.3114 6.08667 49.5914 7.09333 49.5914 8.4V15H47.0314V8.66C47.0314 7.16667 46.4714 6.42 45.3514 6.42C45.0981 6.42 44.8514 6.46 44.6114 6.54C44.3847 6.60667 44.1781 6.71333 43.9914 6.86C43.8181 6.99333 43.6781 7.16667 43.5714 7.38C43.4647 7.58 43.4114 7.82 43.4114 8.1V15H40.8514V8.66C40.8514 7.16667 40.2914 6.42 39.1714 6.42C38.9314 6.42 38.6914 6.46 38.4514 6.54C38.2247 6.60667 38.0181 6.71333 37.8314 6.86C37.6581 6.99333 37.5114 7.16667 37.3914 7.38C37.2847 7.58 37.2314 7.82 37.2314 8.1V15H34.6714ZM52.4253 4.56H54.9853V6.28H55.0653C55.252 5.68 55.6053 5.20667 56.1253 4.86C56.6453 4.5 57.252 4.32 57.9453 4.32C59.2786 4.32 60.292 4.79333 60.9853 5.74C61.692 6.67333 62.0453 8.01333 62.0453 9.76C62.0453 11.52 61.692 12.8733 60.9853 13.82C60.292 14.7667 59.2786 15.24 57.9453 15.24C57.252 15.24 56.6453 15.06 56.1253 14.7C55.6186 14.34 55.2653 13.86 55.0653 13.26H54.9853V19H52.4253V4.56ZM57.1253 13.12C57.792 13.12 58.332 12.9 58.7453 12.46C59.1586 12.02 59.3653 11.4267 59.3653 10.68V8.88C59.3653 8.13333 59.1586 7.54 58.7453 7.1C58.332 6.64667 57.792 6.42 57.1253 6.42C56.512 6.42 55.9986 6.57333 55.5853 6.88C55.1853 7.18667 54.9853 7.59333 54.9853 8.1V11.42C54.9853 11.9667 55.1853 12.3867 55.5853 12.68C55.9986 12.9733 56.512 13.12 57.1253 13.12ZM66.9775 15C66.0975 15 65.4508 14.78 65.0375 14.34C64.6242 13.9 64.4175 13.28 64.4175 12.48V0.2H66.9775V12.96H68.3575V15H66.9775ZM74.5164 15.24C73.7431 15.24 73.0497 15.1133 72.4364 14.86C71.8364 14.5933 71.3231 14.2267 70.8964 13.76C70.4831 13.28 70.1631 12.7067 69.9364 12.04C69.7097 11.36 69.5964 10.6 69.5964 9.76C69.5964 8.93333 69.7031 8.18667 69.9164 7.52C70.1431 6.85333 70.4631 6.28667 70.8764 5.82C71.2897 5.34 71.7964 4.97333 72.3964 4.72C72.9964 4.45333 73.6764 4.32 74.4364 4.32C75.2497 4.32 75.9564 4.46 76.5564 4.74C77.1564 5.02 77.6497 5.4 78.0364 5.88C78.4231 6.36 78.7097 6.92 78.8964 7.56C79.0964 8.18667 79.1964 8.86 79.1964 9.58V10.42H72.2564V10.68C72.2564 11.44 72.4697 12.0533 72.8964 12.52C73.3231 12.9733 73.9564 13.2 74.7964 13.2C75.4364 13.2 75.9564 13.0667 76.3564 12.8C76.7697 12.5333 77.1364 12.1933 77.4564 11.78L78.8364 13.32C78.4097 13.92 77.8231 14.3933 77.0764 14.74C76.3431 15.0733 75.4897 15.24 74.5164 15.24ZM74.4764 6.24C73.7964 6.24 73.2564 6.46667 72.8564 6.92C72.4564 7.37333 72.2564 7.96 72.2564 8.68V8.84H76.5364V8.66C76.5364 7.94 76.3564 7.36 75.9964 6.92C75.6497 6.46667 75.1431 6.24 74.4764 6.24ZM93.8553 15C93.2953 15 92.8486 14.84 92.5153 14.52C92.1953 14.1867 91.9953 13.7467 91.9153 13.2H91.7953C91.622 13.88 91.2686 14.3933 90.7353 14.74C90.202 15.0733 89.542 15.24 88.7553 15.24C87.6886 15.24 86.8686 14.96 86.2953 14.4C85.722 13.84 85.4353 13.0933 85.4353 12.16C85.4353 11.08 85.822 10.28 86.5953 9.76C87.3686 9.22667 88.4686 8.96 89.8953 8.96H91.6753V8.2C91.6753 7.61333 91.522 7.16 91.2153 6.84C90.9086 6.52 90.4153 6.36 89.7353 6.36C89.1353 6.36 88.6486 6.49333 88.2753 6.76C87.9153 7.01333 87.6086 7.32 87.3553 7.68L85.8353 6.32C86.222 5.72 86.7353 5.24 87.3753 4.88C88.0153 4.50667 88.862 4.32 89.9153 4.32C91.3286 4.32 92.402 4.64 93.1353 5.28C93.8686 5.92 94.2353 6.84 94.2353 8.04V12.96H95.2753V15H93.8553ZM89.6153 13.38C90.1886 13.38 90.6753 13.2533 91.0753 13C91.4753 12.7467 91.6753 12.3733 91.6753 11.88V10.5H90.0353C88.702 10.5 88.0353 10.9267 88.0353 11.78V12.12C88.0353 12.5467 88.1686 12.8667 88.4353 13.08C88.7153 13.28 89.1086 13.38 89.6153 13.38ZM97.3472 4.56H99.9072V6.28H99.9872C100.174 5.68 100.527 5.20667 101.047 4.86C101.567 4.5 102.174 4.32 102.867 4.32C104.201 4.32 105.214 4.79333 105.907 5.74C106.614 6.67333 106.967 8.01333 106.967 9.76C106.967 11.52 106.614 12.8733 105.907 13.82C105.214 14.7667 104.201 15.24 102.867 15.24C102.174 15.24 101.567 15.06 101.047 14.7C100.541 14.34 100.187 13.86 99.9872 13.26H99.9072V19H97.3472V4.56ZM102.047 13.12C102.714 13.12 103.254 12.9 103.667 12.46C104.081 12.02 104.287 11.4267 104.287 10.68V8.88C104.287 8.13333 104.081 7.54 103.667 7.1C103.254 6.64667 102.714 6.42 102.047 6.42C101.434 6.42 100.921 6.57333 100.507 6.88C100.107 7.18667 99.9072 7.59333 99.9072 8.1V11.42C99.9072 11.9667 100.107 12.3867 100.507 12.68C100.921 12.9733 101.434 13.12 102.047 13.12ZM109.339 4.56H111.899V6.28H111.979C112.166 5.68 112.519 5.20667 113.039 4.86C113.559 4.5 114.166 4.32 114.859 4.32C116.193 4.32 117.206 4.79333 117.899 5.74C118.606 6.67333 118.959 8.01333 118.959 9.76C118.959 11.52 118.606 12.8733 117.899 13.82C117.206 14.7667 116.193 15.24 114.859 15.24C114.166 15.24 113.559 15.06 113.039 14.7C112.533 14.34 112.179 13.86 111.979 13.26H111.899V19H109.339V4.56ZM114.039 13.12C114.706 13.12 115.246 12.9 115.659 12.46C116.073 12.02 116.279 11.4267 116.279 10.68V8.88C116.279 8.13333 116.073 7.54 115.659 7.1C115.246 6.64667 114.706 6.42 114.039 6.42C113.426 6.42 112.913 6.57333 112.499 6.88C112.099 7.18667 111.899 7.59333 111.899 8.1V11.42C111.899 11.9667 112.099 12.3867 112.499 12.68C112.913 12.9733 113.426 13.12 114.039 13.12Z" fill="white"/>
</svg>
