<svg width="196" height="32" viewBox="0 0 196 32" fill="none" xmlns="http://www.w3.org/2000/svg">
<path d="M1.39163 21.2862V10.1182H6.19163C7.22629 10.1182 8.02629 10.4222 8.59163 11.0302C9.15696 11.6382 9.43963 12.4542 9.43963 13.4782C9.43963 14.5022 9.15696 15.3182 8.59163 15.9262C8.02629 16.5342 7.22629 16.8382 6.19163 16.8382H3.19963V21.2862H1.39163ZM3.19963 15.2542H6.07963C6.53829 15.2542 6.89563 15.1369 7.15163 14.9022C7.40763 14.6569 7.53563 14.3102 7.53563 13.8622V13.0942C7.53563 12.6462 7.40763 12.3049 7.15163 12.0702C6.89563 11.8249 6.53829 11.7022 6.07963 11.7022H3.19963V15.2542ZM14.2464 21.4782C13.6704 21.4782 13.1424 21.3769 12.6624 21.1742C12.193 20.9715 11.793 20.6835 11.4624 20.3102C11.1317 19.9262 10.8757 19.4675 10.6944 18.9342C10.513 18.3902 10.4224 17.7875 10.4224 17.1262C10.4224 16.4649 10.513 15.8675 10.6944 15.3342C10.8757 14.7902 11.1317 14.3315 11.4624 13.9582C11.793 13.5742 12.193 13.2809 12.6624 13.0782C13.1424 12.8755 13.6704 12.7742 14.2464 12.7742C14.8224 12.7742 15.345 12.8755 15.8144 13.0782C16.2944 13.2809 16.6997 13.5742 17.0304 13.9582C17.361 14.3315 17.617 14.7902 17.7984 15.3342C17.9797 15.8675 18.0704 16.4649 18.0704 17.1262C18.0704 17.7875 17.9797 18.3902 17.7984 18.9342C17.617 19.4675 17.361 19.9262 17.0304 20.3102C16.6997 20.6835 16.2944 20.9715 15.8144 21.1742C15.345 21.3769 14.8224 21.4782 14.2464 21.4782ZM14.2464 20.0382C14.8437 20.0382 15.3237 19.8569 15.6864 19.4942C16.049 19.1209 16.2304 18.5662 16.2304 17.8302V16.4222C16.2304 15.6862 16.049 15.1369 15.6864 14.7742C15.3237 14.4009 14.8437 14.2142 14.2464 14.2142C13.649 14.2142 13.169 14.4009 12.8064 14.7742C12.4437 15.1369 12.2624 15.6862 12.2624 16.4222V17.8302C12.2624 18.5662 12.4437 19.1209 12.8064 19.4942C13.169 19.8569 13.649 20.0382 14.2464 20.0382ZM19.0723 12.9662H20.7682L21.6163 16.4542L22.3683 19.6062H22.4163L23.2803 16.4542L24.2883 12.9662H25.8563L26.8802 16.4542L27.7603 19.6062H27.8083L28.5443 16.4542L29.4083 12.9662H31.0243L28.7843 21.2862H26.8163L25.7283 17.4942L25.0563 15.1582H25.0243L24.3683 17.4942L23.2643 21.2862H21.3443L19.0723 12.9662ZM35.8401 21.4782C35.2428 21.4782 34.7095 21.3769 34.2401 21.1742C33.7708 20.9715 33.3708 20.6835 33.0401 20.3102C32.7095 19.9262 32.4535 19.4675 32.2721 18.9342C32.1015 18.3902 32.0161 17.7875 32.0161 17.1262C32.0161 16.4649 32.1015 15.8675 32.2721 15.3342C32.4535 14.7902 32.7095 14.3315 33.0401 13.9582C33.3708 13.5742 33.7708 13.2809 34.2401 13.0782C34.7095 12.8755 35.2428 12.7742 35.8401 12.7742C36.4481 12.7742 36.9815 12.8809 37.4401 13.0942C37.9095 13.3075 38.2988 13.6062 38.6081 13.9902C38.9175 14.3635 39.1468 14.8009 39.2961 15.3022C39.4561 15.8035 39.5361 16.3422 39.5361 16.9182V17.5742H33.8241V17.8462C33.8241 18.4862 34.0108 19.0142 34.3841 19.4302C34.7681 19.8355 35.3121 20.0382 36.0161 20.0382C36.5281 20.0382 36.9601 19.9262 37.3121 19.7022C37.6641 19.4782 37.9628 19.1742 38.2081 18.7902L39.2321 19.7982C38.9228 20.3102 38.4748 20.7209 37.8881 21.0302C37.3015 21.3289 36.6188 21.4782 35.8401 21.4782ZM35.8401 14.1342C35.5415 14.1342 35.2641 14.1875 35.0081 14.2942C34.7628 14.4009 34.5495 14.5502 34.3681 14.7422C34.1975 14.9342 34.0641 15.1635 33.9681 15.4302C33.8721 15.6969 33.8241 15.9902 33.8241 16.3102V16.4222H37.6961V16.2622C37.6961 15.6222 37.5308 15.1102 37.2001 14.7262C36.8695 14.3315 36.4161 14.1342 35.8401 14.1342ZM41.4668 21.2862V12.9662H43.2108V14.5662H43.2908C43.4081 14.1395 43.6534 13.7662 44.0268 13.4462C44.4001 13.1262 44.9174 12.9662 45.5788 12.9662H46.0428V14.6462H45.3548C44.6614 14.6462 44.1281 14.7582 43.7548 14.9822C43.3921 15.2062 43.2108 15.5369 43.2108 15.9742V21.2862H41.4668ZM50.7776 21.4782C50.1803 21.4782 49.647 21.3769 49.1776 21.1742C48.7083 20.9715 48.3083 20.6835 47.9776 20.3102C47.647 19.9262 47.391 19.4675 47.2096 18.9342C47.039 18.3902 46.9536 17.7875 46.9536 17.1262C46.9536 16.4649 47.039 15.8675 47.2096 15.3342C47.391 14.7902 47.647 14.3315 47.9776 13.9582C48.3083 13.5742 48.7083 13.2809 49.1776 13.0782C49.647 12.8755 50.1803 12.7742 50.7776 12.7742C51.3856 12.7742 51.919 12.8809 52.3776 13.0942C52.847 13.3075 53.2363 13.6062 53.5456 13.9902C53.855 14.3635 54.0843 14.8009 54.2336 15.3022C54.3936 15.8035 54.4736 16.3422 54.4736 16.9182V17.5742H48.7616V17.8462C48.7616 18.4862 48.9483 19.0142 49.3216 19.4302C49.7056 19.8355 50.2496 20.0382 50.9536 20.0382C51.4656 20.0382 51.8976 19.9262 52.2496 19.7022C52.6016 19.4782 52.9003 19.1742 53.1456 18.7902L54.1696 19.7982C53.8603 20.3102 53.4123 20.7209 52.8256 21.0302C52.239 21.3289 51.5563 21.4782 50.7776 21.4782ZM50.7776 14.1342C50.479 14.1342 50.2016 14.1875 49.9456 14.2942C49.7003 14.4009 49.487 14.5502 49.3056 14.7422C49.135 14.9342 49.0016 15.1635 48.9056 15.4302C48.8096 15.6969 48.7616 15.9902 48.7616 16.3102V16.4222H52.6336V16.2622C52.6336 15.6222 52.4683 15.1102 52.1376 14.7262C51.807 14.3315 51.3536 14.1342 50.7776 14.1342ZM61.6363 19.9102H61.5563C61.3749 20.4009 61.0763 20.7849 60.6603 21.0622C60.2549 21.3395 59.7749 21.4782 59.2203 21.4782C58.1643 21.4782 57.3483 21.0995 56.7723 20.3422C56.1963 19.5742 55.9083 18.5022 55.9083 17.1262C55.9083 15.7502 56.1963 14.6835 56.7723 13.9262C57.3483 13.1582 58.1643 12.7742 59.2203 12.7742C59.7749 12.7742 60.2549 12.9129 60.6603 13.1902C61.0763 13.4569 61.3749 13.8409 61.5563 14.3422H61.6363V9.44619H63.3802V21.2862H61.6363V19.9102ZM59.7483 19.9742C60.2816 19.9742 60.7296 19.8462 61.0923 19.5902C61.4549 19.3235 61.6363 18.9769 61.6363 18.5502V15.7022C61.6363 15.2755 61.4549 14.9342 61.0923 14.6782C60.7296 14.4115 60.2816 14.2782 59.7483 14.2782C59.1403 14.2782 58.6549 14.4755 58.2923 14.8702C57.9296 15.2542 57.7483 15.7662 57.7483 16.4062V17.8462C57.7483 18.4862 57.9296 19.0035 58.2923 19.3982C58.6549 19.7822 59.1403 19.9742 59.7483 19.9742ZM69.6543 9.44619H71.3983V14.3422H71.4783C71.6596 13.8409 71.9529 13.4569 72.3583 13.1902C72.7743 12.9129 73.2596 12.7742 73.8143 12.7742C74.8703 12.7742 75.6863 13.1582 76.2623 13.9262C76.8383 14.6835 77.1263 15.7502 77.1263 17.1262C77.1263 18.5022 76.8383 19.5742 76.2623 20.3422C75.6863 21.0995 74.8703 21.4782 73.8143 21.4782C73.2596 21.4782 72.7743 21.3395 72.3583 21.0622C71.9529 20.7849 71.6596 20.4009 71.4783 19.9102H71.3983V21.2862H69.6543V9.44619ZM73.2863 19.9742C73.8943 19.9742 74.3796 19.7822 74.7423 19.3982C75.1049 19.0035 75.2863 18.4862 75.2863 17.8462V16.4062C75.2863 15.7662 75.1049 15.2542 74.7423 14.8702C74.3796 14.4755 73.8943 14.2782 73.2863 14.2782C72.7529 14.2782 72.3049 14.4115 71.9423 14.6782C71.5796 14.9342 71.3983 15.2755 71.3983 15.7022V18.5502C71.3983 18.9769 71.5796 19.3235 71.9423 19.5902C72.3049 19.8462 72.7529 19.9742 73.2863 19.9742ZM84.1176 12.9662H85.7976L82.2936 22.9342C82.1976 23.2115 82.0856 23.4462 81.9576 23.6382C81.8403 23.8409 81.6963 24.0009 81.5256 24.1182C81.3656 24.2462 81.1683 24.3369 80.9336 24.3902C80.699 24.4542 80.4216 24.4862 80.1016 24.4862H79.0936V23.0622H80.5016L80.9816 21.6542L77.9576 12.9662H79.7016L81.3656 17.8622L81.8456 19.6702H81.9256L82.4536 17.8622L84.1176 12.9662Z" fill="white"/>
<path d="M127.957 9.01544V28.0295H125.324V17.6206C125.324 17.6206 118.378 17.6206 114.918 17.6206C114.918 18.4849 114.918 19.2991 114.918 20.1884C117.539 20.1884 120.083 20.1884 122.691 20.1884C122.691 20.6894 122.691 21.1028 122.691 21.5161C122.691 24.8354 122.691 28.1673 122.691 31.4866C122.691 31.6995 122.703 31.8624 122.729 31.9876C125.68 31.5116 128.364 30.2591 130.552 28.4303C130.552 25.825 130.552 15.5789 130.552 15.0528C130.54 13.0612 130.082 10.8442 127.957 9.01544Z" fill="white"/>
<path d="M122.677 9.81695H125.31V4.11775C126.9 4.45594 132.917 8.32639 133.159 14.4014V25.6745C135.105 23.0441 136.263 19.8125 136.263 16.3053C136.263 8.38902 130.399 1.82554 122.715 0.598022C122.689 0.735805 122.677 0.89864 122.677 1.11158L122.677 9.81695Z" fill="white"/>
<path d="M112.272 23.5702V4.55615H114.905V14.965C114.905 14.965 121.851 14.965 125.311 14.965C125.311 14.1007 125.311 13.2866 125.311 12.3972C122.691 12.3972 120.146 12.3972 117.538 12.3972C117.538 11.8962 117.538 11.4829 117.538 11.0695C117.538 7.75021 117.538 4.41837 117.538 1.09905C117.538 0.886114 117.526 0.72328 117.5 0.598022C114.549 1.074 111.865 2.32657 109.677 4.15533C109.677 6.76068 109.677 17.0067 109.677 17.5328C109.689 19.5369 110.147 21.754 112.272 23.5702Z" fill="white"/>
<path d="M117.55 22.7808H114.917V28.48C113.327 28.1418 107.31 24.2713 107.068 18.1964V6.92322C105.121 9.55362 103.964 12.7853 103.964 16.2925C103.964 24.2087 109.828 30.7722 117.512 31.9997C117.537 31.8619 117.55 31.6991 117.55 31.4862V22.7808Z" fill="white"/>
<path d="M145.55 23.1473V8.95715H147.667V14.6933H149.566V8.95715H151.683V23.1473H149.566V16.5487H147.667V23.1473H145.55Z" fill="white"/>
<path fill-rule="evenodd" clip-rule="evenodd" d="M158.201 8.95715L156.212 23.1473H158.278L158.573 20.6124H160.818L161.152 23.1473H163.128L160.998 8.95715H158.201ZM159.65 11.7406L160.587 18.8749H158.765L159.625 11.7406H159.65Z" fill="white"/>
<path d="M167.646 23.1473V8.95715H169.314L172.265 17.4764L172.111 13.6088V8.97022H174.023V23.1603H172.522L169.493 14.3405L169.609 18.0644V23.1473H167.646Z" fill="white"/>
<path d="M178.861 23.1473V8.95715H180.979V15.4904L183.096 8.95715H185.29L182.98 15.9607L185.47 23.1473H183.224L181.004 16.5095V23.1342H178.861V23.1473Z" fill="white"/>
<path fill-rule="evenodd" clip-rule="evenodd" d="M192.412 23.3045C193.49 23.3045 194.26 22.9648 194.747 22.2853C195.235 21.5928 195.479 20.5605 195.479 19.1755V12.6815C195.479 11.401 195.248 10.4341 194.773 9.7677C194.298 9.10132 193.528 8.77466 192.45 8.77466C190.359 8.77466 189.319 10.0813 189.319 12.6815V19.1755C189.319 20.5475 189.563 21.5928 190.064 22.2722C190.564 22.9648 191.347 23.3045 192.412 23.3045ZM192.412 21.4357C192.028 21.4357 191.771 21.2658 191.643 20.9392C191.527 20.6125 191.463 20.0376 191.45 19.2013V12.5767C191.45 11.9103 191.527 11.4268 191.668 11.1132C191.809 10.8127 192.066 10.6559 192.425 10.6559C192.785 10.6559 193.028 10.7996 193.157 11.1132C193.285 11.4268 193.349 11.9233 193.349 12.5897V19.2013C193.349 20.0114 193.285 20.5864 193.17 20.9261C193.054 21.2658 192.797 21.4357 192.412 21.4357Z" fill="white"/>
</svg>
